<?xml version="1.0" encoding="UTF-8" standalone="no"?>
<svg
   version="1.0"
   width="900.000000pt"
   height="900.000000pt"
   viewBox="0 0 900.000000 900.000000"
   preserveAspectRatio="xMidYMid meet"
   id="svg91"
   sodipodi:docname="chopsticks redefined.svg"
   inkscape:version="1.1.2 (b8e25be833, 2022-02-05)"
   xmlns:inkscape="http://www.inkscape.org/namespaces/inkscape"
   xmlns:sodipodi="http://sodipodi.sourceforge.net/DTD/sodipodi-0.dtd"
   xmlns:xlink="http://www.w3.org/1999/xlink"
   xmlns="http://www.w3.org/2000/svg"
   xmlns:svg="http://www.w3.org/2000/svg">
  <defs
     id="defs95">
    <linearGradient
       inkscape:collect="always"
       id="linearGradient211">
      <stop
         style="stop-color:#000000;stop-opacity:1;"
         offset="0"
         id="stop207" />
      <stop
         style="stop-color:#ff0000;stop-opacity:1"
         offset="1"
         id="stop209" />
    </linearGradient>
    <linearGradient
       inkscape:collect="always"
       xlink:href="#linearGradient211"
       id="linearGradient213"
       x1="1688"
       y1="8540"
       x2="5243.9517"
       y2="7348.7905"
       gradientUnits="userSpaceOnUse"
       gradientTransform="translate(0,-254.03226)" />
    <linearGradient
       inkscape:collect="always"
       xlink:href="#linearGradient211"
       id="linearGradient215"
       x1="1688"
       y1="8540"
       x2="5243.9517"
       y2="7348.7905"
       gradientUnits="userSpaceOnUse"
       gradientTransform="translate(0,-254.03226)" />
    <linearGradient
       inkscape:collect="always"
       xlink:href="#linearGradient211"
       id="linearGradient217"
       x1="1688"
       y1="8540"
       x2="5243.9517"
       y2="7348.7905"
       gradientUnits="userSpaceOnUse"
       gradientTransform="translate(0,-254.03226)" />
    <linearGradient
       inkscape:collect="always"
       xlink:href="#linearGradient211"
       id="linearGradient219"
       x1="1688"
       y1="8540"
       x2="5243.9517"
       y2="7348.7905"
       gradientUnits="userSpaceOnUse"
       gradientTransform="translate(0,-254.03226)" />
    <linearGradient
       inkscape:collect="always"
       xlink:href="#linearGradient211"
       id="linearGradient221"
       x1="1688"
       y1="8540"
       x2="5243.9517"
       y2="7348.7905"
       gradientUnits="userSpaceOnUse"
       gradientTransform="translate(0,-254.03226)" />
    <linearGradient
       inkscape:collect="always"
       xlink:href="#linearGradient211"
       id="linearGradient223"
       x1="1688"
       y1="8540"
       x2="5243.9517"
       y2="7348.7905"
       gradientUnits="userSpaceOnUse"
       gradientTransform="translate(0,-254.03226)" />
    <linearGradient
       inkscape:collect="always"
       xlink:href="#linearGradient211"
       id="linearGradient225"
       x1="1688"
       y1="8540"
       x2="5243.9517"
       y2="7348.7905"
       gradientUnits="userSpaceOnUse"
       gradientTransform="translate(0,-254.03226)" />
    <linearGradient
       inkscape:collect="always"
       xlink:href="#linearGradient211"
       id="linearGradient229"
       x1="1688"
       y1="8540"
       x2="5243.9517"
       y2="7348.7905"
       gradientUnits="userSpaceOnUse"
       gradientTransform="translate(0,-254.03226)" />
    <linearGradient
       inkscape:collect="always"
       xlink:href="#linearGradient211"
       id="linearGradient231"
       x1="1688"
       y1="8540"
       x2="5243.9517"
       y2="7348.7905"
       gradientUnits="userSpaceOnUse"
       gradientTransform="translate(0,-254.03226)" />
    <linearGradient
       inkscape:collect="always"
       xlink:href="#linearGradient211"
       id="linearGradient233"
       x1="1688"
       y1="8540"
       x2="5243.9517"
       y2="7348.7905"
       gradientUnits="userSpaceOnUse"
       gradientTransform="translate(0,-254.03226)" />
    <linearGradient
       inkscape:collect="always"
       xlink:href="#linearGradient211"
       id="linearGradient235"
       x1="1688"
       y1="8540"
       x2="5243.9517"
       y2="7348.7905"
       gradientUnits="userSpaceOnUse"
       gradientTransform="translate(0,-254.03226)" />
    <linearGradient
       inkscape:collect="always"
       xlink:href="#linearGradient211"
       id="linearGradient237"
       x1="1688"
       y1="8540"
       x2="5243.9517"
       y2="7348.7905"
       gradientUnits="userSpaceOnUse"
       gradientTransform="translate(0,-254.03226)" />
    <linearGradient
       inkscape:collect="always"
       xlink:href="#linearGradient211"
       id="linearGradient239"
       x1="1688"
       y1="8540"
       x2="5243.9517"
       y2="7348.7905"
       gradientUnits="userSpaceOnUse"
       gradientTransform="translate(0,-254.03226)" />
    <linearGradient
       inkscape:collect="always"
       xlink:href="#linearGradient211"
       id="linearGradient241"
       x1="1688"
       y1="8540"
       x2="5243.9517"
       y2="7348.7905"
       gradientUnits="userSpaceOnUse"
       gradientTransform="translate(0,-254.03226)" />
    <linearGradient
       inkscape:collect="always"
       xlink:href="#linearGradient211"
       id="linearGradient243"
       x1="1688"
       y1="8540"
       x2="5243.9517"
       y2="7348.7905"
       gradientUnits="userSpaceOnUse"
       gradientTransform="translate(0,-254.03226)" />
  </defs>
  <sodipodi:namedview
     id="namedview93"
     pagecolor="#ffffff"
     bordercolor="#666666"
     borderopacity="1.0"
     inkscape:pageshadow="2"
     inkscape:pageopacity="0.0"
     inkscape:pagecheckerboard="0"
     inkscape:document-units="pt"
     showgrid="false"
     inkscape:lockguides="true"
     inkscape:snap-nodes="false"
     inkscape:zoom="0.2922708"
     inkscape:cx="703.11506"
     inkscape:cy="694.56135"
     inkscape:window-width="1366"
     inkscape:window-height="705"
     inkscape:window-x="-8"
     inkscape:window-y="-8"
     inkscape:window-maximized="1"
     inkscape:current-layer="g89" />
  <g
     transform="matrix(0.1,0,0,-0.1,-23.58871,896.37097)"
     fill="#000000"
     stroke="none"
     id="g89">
    <path
       d="m 1688,8285.9677 c -27,-16 -57,-72 -84,-160 -14,-45 -24,-83 -22,-85 3,-4 384,-55 407,-55 11,0 12,27 9,136 -3,74 -9,139 -14,143 -9,8 -203,31 -254,31 -14,0 -33,-5 -42,-10 z"
       id="path53"
       style="fill:url(#linearGradient213);fill-opacity:1" />
    <path
       d="m 2082,8213.9677 c -7,-24 -20,-68 -28,-98 -9,-30 -20,-63 -25,-72 -5,-10 -9,-23 -9,-29 0,-7 -14,-58 -31,-113 -33,-109 -84,-280 -125,-416 -13,-47 -35,-121 -48,-165 -39,-131 -40,-134 -14,-139 121,-26 119,-26 130,3 5,14 12,41 15,59 3,18 10,35 14,38 5,3 9,14 9,24 0,11 6,39 14,62 25,79 64,213 70,241 4,15 10,27 15,27 6,0 6,-13 0,-32 -5,-17 -7,-33 -5,-35 1,-2 29,-8 62,-14 32,-6 60,-12 62,-14 4,-3 -15,-78 -28,-110 -4,-11 -16,-49 -25,-85 -9,-36 -21,-74 -25,-85 -13,-31 -34,-124 -29,-128 2,-3 37,-7 77,-11 54,-5 73,-3 76,6 2,7 12,40 21,73 9,33 25,87 34,120 10,33 26,89 36,125 9,36 21,74 25,85 5,11 13,40 20,65 12,48 19,71 45,160 9,30 20,69 25,85 7,27 30,104 77,265 9,30 17,69 17,85 l 1,30 -71,1 -71,2 -32,-107 c -18,-58 -39,-128 -47,-156 -8,-27 -20,-67 -26,-88 l -12,-39 -63,7 c -44,5 -68,3 -78,-5 -19,-16 -19,-18 9,70 12,41 31,104 41,140 9,36 21,74 25,85 13,32 32,107 28,110 -2,1 -34,6 -73,10 l -70,6 z"
       id="path55"
       style="fill:url(#linearGradient215);fill-opacity:1" />
    <path
       d="m 2635,8193.9677 c -20,-12 -34,-26 -61,-65 -13,-18 -64,-182 -64,-205 0,-7 99,-22 145,-20 17,0 99,-8 184,-19 84,-11 155,-18 156,-17 1,2 12,43 24,91 35,137 28,201 -22,212 -24,5 -309,35 -330,35 -6,0 -21,-6 -32,-12 z"
       id="path57"
       style="fill:url(#linearGradient217);fill-opacity:1" />
    <path
       d="m 3106,8108.9677 c -9,-26 -16,-55 -16,-65 0,-10 -4,-26 -9,-36 -13,-24 -45,-141 -40,-146 2,-1 65,-11 139,-20 208,-26 198,-23 193,-54 -3,-15 -8,-36 -13,-47 -4,-11 -14,-42 -22,-70 -14,-49 -15,-50 -54,-49 -21,0 -61,4 -87,8 -40,6 -47,10 -42,24 24,58 42,144 31,147 -26,10 -152,22 -157,16 -5,-5 -24,-66 -49,-161 -6,-19 -17,-60 -25,-90 -9,-30 -20,-71 -25,-90 -6,-19 -17,-60 -25,-90 -9,-30 -21,-73 -27,-95 -6,-22 -17,-59 -24,-83 -8,-23 -14,-49 -14,-57 0,-9 -4,-23 -9,-33 -15,-27 -32,-102 -27,-111 3,-4 40,-14 82,-21 88,-14 87,-14 104,65 6,27 15,59 20,70 5,11 18,58 29,104 11,46 23,86 26,89 2,3 53,-3 112,-13 130,-21 176,-21 208,2 32,24 63,80 82,150 8,32 19,72 23,88 5,17 18,68 30,115 12,47 25,94 30,105 5,11 11,31 13,45 3,14 12,52 22,85 22,75 26,117 14,158 -17,59 -14,58 -235,83 -115,13 -216,24 -226,24 -10,0 -22,-16 -32,-47 z"
       id="path59"
       style="fill:url(#linearGradient219);fill-opacity:1" />
    <path
       d="m 3801,8087.9677 c -81,-8 -111,-56 -161,-262 -5,-19 -7,-36 -5,-39 8,-7 354,-48 463,-55 l 103,-6 -5,32 c -3,18 -8,49 -10,68 -25,194 -30,230 -35,231 -3,0 -76,8 -161,17 -85,9 -170,16 -189,14 z"
       id="path61"
       style="fill:url(#linearGradient221);fill-opacity:1" />
    <path
       d="m 4313,8028.9677 c -7,-2 -13,-12 -13,-21 0,-20 -29,-148 -41,-177 -4,-11 -10,-33 -12,-50 -3,-16 -8,-37 -12,-46 -5,-14 8,-18 81,-27 48,-7 89,-13 91,-15 2,-3 -1,-16 -7,-31 -5,-15 -10,-41 -10,-57 0,-16 -4,-29 -10,-29 -5,0 -10,-8 -10,-17 0,-20 -29,-147 -40,-178 -4,-11 -16,-56 -25,-100 -10,-44 -21,-89 -25,-100 -11,-29 -32,-116 -37,-150 -2,-16 -8,-39 -13,-50 -4,-11 -16,-54 -25,-95 -10,-41 -21,-86 -27,-99 -5,-13 -7,-25 -5,-27 4,-4 133,-31 171,-36 27,-3 29,0 47,57 10,33 19,72 19,86 0,14 3,29 7,33 10,9 42,136 42,167 1,14 4,29 8,33 10,9 42,136 42,167 1,14 4,29 8,33 9,9 42,135 42,164 1,12 5,30 10,40 10,20 32,104 38,147 2,17 8,39 13,50 4,11 14,46 21,78 7,31 16,57 20,57 9,0 3,-48 -11,-90 -25,-76 -25,-78 33,-85 28,-3 64,-8 78,-11 23,-4 32,6 95,97 38,55 74,109 80,120 6,10 17,27 25,36 15,20 41,63 37,63 -2,0 -59,7 -128,15 -69,8 -132,15 -140,15 -14,0 -40,-61 -40,-95 0,-8 -4,-15 -9,-15 -6,0 -7,16 -4,38 14,82 24,75 -142,94 -156,18 -201,20 -222,11 z"
       id="path63"
       style="fill:url(#linearGradient223);fill-opacity:1" />
    <path
       d="m 1563,7983.9677 c -6,-13 -19,-50 -28,-83 -9,-33 -25,-85 -35,-115 -10,-30 -26,-82 -35,-115 -9,-33 -21,-68 -26,-77 -5,-10 -9,-23 -9,-30 0,-7 -14,-55 -30,-107 -32,-101 -36,-136 -19,-174 10,-22 24,-27 133,-47 66,-12 130,-24 141,-26 20,-4 53,39 159,207 l 35,56 -140,23 c -76,13 -139,27 -139,33 0,6 18,69 40,141 80,257 90,292 90,303 0,13 -16,19 -81,27 -40,6 -46,4 -56,-16 z"
       id="path65"
       style="fill:url(#linearGradient225);fill-opacity:1" />
    <path
       d="m 5370,7897.9677 c -33,-27 -70,-93 -70,-123 0,-10 -4,-21 -10,-24 -5,-3 -10,-18 -10,-33 0,-15 -7,-48 -15,-74 -7,-26 -10,-50 -6,-52 14,-9 482,-67 491,-61 5,3 50,0 100,-6 50,-6 93,-9 97,-6 3,3 -1,37 -10,74 -20,91 -44,209 -52,256 -3,20 -9,37 -14,37 -4,0 -89,9 -187,20 -235,26 -274,25 -314,-8 z"
       id="path69"
       style="fill:url(#linearGradient229);fill-opacity:1" />
    <path
       d="m 2492,7868.9677 c -6,-16 -14,-41 -17,-58 -4,-16 -10,-39 -15,-50 -4,-11 -15,-47 -25,-80 -16,-58 -35,-126 -70,-250 -10,-33 -24,-79 -31,-103 -8,-23 -14,-51 -14,-62 0,-10 -5,-22 -11,-26 -14,-8 -7,-120 9,-136 9,-9 333,-78 369,-78 24,0 80,60 96,102 9,24 25,77 36,118 11,41 27,100 36,130 27,90 33,112 50,175 9,33 20,74 25,90 5,17 16,55 24,85 8,30 18,65 21,76 9,29 2,32 -87,40 l -76,7 -10,-44 c -6,-24 -18,-71 -27,-104 -30,-106 -34,-119 -58,-208 -13,-48 -27,-90 -30,-94 -4,-3 -7,-17 -7,-31 0,-22 -3,-24 -29,-19 -15,3 -51,9 -80,13 -45,6 -51,9 -51,30 0,14 4,32 9,42 5,9 17,46 27,82 27,102 45,163 55,188 5,13 9,33 9,45 0,13 4,27 9,33 5,5 12,28 16,50 l 6,42 -58,6 c -32,4 -65,9 -74,12 -11,3 -20,-5 -27,-23 z"
       id="path71"
       style="fill:url(#linearGradient231);fill-opacity:1" />
    <path
       d="m 6046,7853.9677 c -2,-7 -8,-29 -15,-49 -6,-19 -11,-49 -11,-66 0,-16 -3,-33 -7,-37 -7,-7 -24,-80 -39,-166 -3,-19 -9,-44 -14,-55 -5,-11 -11,-36 -14,-55 -3,-19 -13,-66 -22,-105 -8,-38 -19,-88 -24,-110 -5,-22 -16,-71 -25,-110 -10,-38 -19,-86 -22,-105 -2,-19 -8,-44 -13,-55 -9,-23 -30,-122 -37,-178 -3,-20 -9,-40 -14,-43 -5,-3 -9,-17 -9,-32 0,-15 -7,-49 -15,-76 -8,-27 -15,-64 -15,-83 0,-19 -5,-33 -12,-33 -25,-1 23,-28 60,-34 20,-3 69,-12 109,-20 l 72,-14 16,53 c 8,29 15,69 15,89 0,20 5,36 10,36 6,0 10,13 10,28 0,16 7,51 15,78 8,27 15,63 15,81 0,17 5,35 10,38 6,3 10,16 10,28 0,22 24,135 41,193 5,17 9,44 9,61 0,16 3,33 8,37 7,8 27,98 38,171 3,22 9,49 14,60 11,28 40,166 40,191 0,11 4,24 9,30 5,5 11,27 14,49 3,22 12,71 21,110 9,38 12,72 8,76 -6,6 -185,29 -223,29 -5,0 -11,-6 -13,-12 z"
       id="path73"
       style="fill:url(#linearGradient233);fill-opacity:1" />
    <path
       d="m 6479,7798.9677 c -8,-10 -28,-38 -44,-63 -17,-25 -33,-46 -37,-48 -5,-2 -8,-8 -8,-13 0,-9 -36,-65 -50,-79 -14,-14 -50,-70 -50,-79 0,-5 -3,-11 -8,-13 -21,-9 -72,-104 -72,-135 0,-18 -4,-41 -9,-51 -5,-9 -15,-44 -21,-77 -7,-33 -16,-80 -22,-105 -16,-75 -16,-75 34,-315 12,-55 21,-107 21,-115 0,-8 9,-60 22,-115 12,-55 26,-126 30,-157 7,-67 -10,-58 175,-92 71,-13 129,-19 135,-15 5,6 1,46 -13,107 -12,53 -24,117 -27,142 -3,25 -19,104 -35,175 -17,72 -32,148 -35,171 -4,31 -42,212 -58,275 -2,6 137,224 153,239 3,3 23,32 45,65 22,33 46,66 52,73 7,7 13,18 13,23 0,6 6,17 13,24 41,47 110,155 103,162 -7,7 -205,31 -262,32 -18,1 -37,-6 -45,-16 z"
       id="path75"
       style="fill:url(#linearGradient235);fill-opacity:1" />
    <path
       d="m 7020,7755.9677 c 0,-5 -7,-10 -15,-10 -20,0 -62,-45 -79,-84 -32,-74 -36,-89 -36,-126 0,-21 -4,-42 -10,-45 -5,-3 -10,-26 -10,-50 0,-42 2,-44 33,-50 55,-9 744,-95 765,-95 24,0 35,25 22,48 -5,9 -26,82 -45,162 -20,80 -38,152 -42,160 -3,8 -7,21 -9,28 -5,24 -14,27 -112,29 -87,1 -347,25 -429,39 -20,3 -33,1 -33,-6 z"
       id="path77"
       style="fill:url(#linearGradient237);fill-opacity:1" />
    <path
       d="m 3646,7737.9677 c -2,-4 27,-130 65,-281 38,-151 67,-276 65,-278 -2,-3 -75,7 -162,21 -87,14 -161,23 -166,20 -4,-3 -6,-24 -3,-47 2,-23 7,-71 10,-107 8,-95 17,-175 18,-177 1,-1 94,-19 207,-41 151,-28 210,-36 225,-29 39,20 95,110 95,153 0,13 4,25 9,29 33,20 16,234 -30,393 -11,37 -22,76 -25,87 -9,45 -63,238 -67,242 -2,2 -51,6 -108,9 -57,3 -109,7 -116,9 -7,2 -14,1 -17,-3 z"
       id="path79"
       style="fill:url(#linearGradient239);fill-opacity:1" />
    <path
       d="m 5237,7539.9677 c -4,-4 -7,-17 -7,-28 0,-18 -32,-159 -60,-266 -23,-86 -40,-163 -40,-181 0,-11 -4,-27 -9,-37 -12,-22 -41,-150 -41,-179 0,-12 -4,-24 -9,-27 -28,-18 -17,-190 14,-216 14,-12 474,-102 485,-95 3,2 33,43 66,92 32,48 62,93 67,98 49,63 87,122 87,135 0,13 -37,22 -202,49 -274,44 -251,37 -245,80 2,20 12,68 22,106 9,39 20,88 25,110 5,22 16,69 25,105 9,36 19,81 21,100 3,19 9,44 14,55 5,11 11,34 14,52 6,38 -3,42 -84,41 -30,0 -73,2 -95,6 -23,4 -44,4 -48,0 z"
       id="path81"
       style="fill:url(#linearGradient241);fill-opacity:1" />
    <path
       d="m 6890,7335.9677 c 0,-13 88,-246 106,-280 7,-14 29,-70 49,-125 20,-55 40,-104 45,-110 4,-5 21,-49 38,-97 l 30,-87 -26,5 c -133,25 -422,69 -441,66 -22,-3 -23,-7 -16,-45 4,-23 9,-51 10,-62 2,-11 4,-22 5,-25 1,-3 2,-8 1,-12 -2,-21 60,-263 71,-273 15,-14 304,-69 317,-61 5,3 71,-6 146,-20 75,-14 148,-23 161,-20 31,8 104,82 104,106 0,10 5,22 10,25 6,3 10,24 10,45 0,21 4,41 9,45 20,12 23,128 6,205 -10,41 -21,80 -25,85 -4,6 -18,42 -30,80 -12,39 -26,75 -30,80 -4,6 -17,37 -30,70 -13,33 -27,62 -30,65 -4,3 -13,23 -20,45 -7,22 -27,72 -45,110 -18,39 -38,87 -45,107 -16,43 -10,41 -190,63 -69,8 -140,17 -157,20 -20,4 -33,2 -33,-5 z"
       id="path83"
       style="fill:url(#linearGradient243);fill-opacity:1;image-rendering:crisp-edges" />
    <path
       d="m 1842,6873 c -37,-72 -90,-275 -198,-763 -92,-413 -106,-514 -178,-1245 -14,-143 -30,-303 -36,-355 -39,-378 -57,-865 -42,-1145 16,-286 -1,-1405 -22,-1545 -25,-155 -61,-283 -113,-395 -55,-120 -112,-280 -113,-316 0,-28 22,-60 91,-137 106,-116 164,-159 547,-401 l 193,-123 227,-24 c 125,-13 277,-24 339,-24 109,0 208,13 218,30 4,6 55,252 182,875 14,67 25,91 65,145 94,126 191,344 252,565 103,372 200,741 212,809 22,116 29,398 15,552 -26,279 -49,407 -87,488 l -36,76 26,30 c 28,34 46,87 46,140 0,19 -20,93 -45,165 l -46,129 25,57 c 14,31 46,139 70,240 52,214 66,257 105,319 31,49 64,174 80,305 11,87 2,158 -28,228 -23,52 -131,157 -162,157 -14,0 -40,-18 -66,-45 -62,-66 -107,-156 -185,-375 -56,-158 -108,-277 -147,-335 -18,-26 -52,-104 -76,-172 -46,-131 -79,-195 -115,-228 -18,-16 -23,-17 -31,-5 -15,22 -4,148 24,290 14,69 30,188 36,265 9,119 19,172 67,345 101,371 118,463 118,640 1,85 -2,167 -7,183 -9,34 -149,192 -187,212 -46,24 -76,18 -120,-21 -71,-64 -104,-152 -182,-484 -33,-137 -57,-204 -142,-395 -38,-87 -69,-226 -106,-487 -13,-86 -26,-162 -30,-168 -4,-7 -15,-8 -32,-1 -23,8 -26,19 -41,113 -47,291 -53,610 -22,1063 10,154 19,339 19,410 1,125 0,132 -27,178 -31,53 -140,149 -202,178 -52,24 -121,25 -133,2 z m 171,-79 c 53,-27 96,-75 114,-128 24,-69 24,-264 -1,-467 l -19,-156 -83,63 c -45,34 -123,86 -173,115 -64,37 -91,59 -91,72 0,27 88,427 102,460 22,56 87,73 151,41 z m 865,-363 c 49,-26 117,-97 137,-144 14,-34 14,-49 -5,-190 -11,-83 -32,-207 -46,-275 l -27,-123 -69,69 c -37,38 -96,89 -129,113 -104,75 -99,68 -89,119 5,25 16,92 25,150 19,119 67,269 92,288 24,18 68,15 111,-7 z M 1820,6186 c 39,-13 216,-150 248,-191 44,-56 55,-117 48,-262 -4,-74 -10,-141 -13,-149 -4,-10 -15,-6 -47,20 -54,44 -126,83 -261,142 -60,26 -115,52 -122,58 -9,9 -8,29 6,91 10,44 28,127 41,185 12,58 24,108 27,113 6,10 33,8 73,-7 z m 878,-315 c 85,-43 194,-167 208,-237 5,-26 -75,-376 -89,-391 -3,-3 -52,32 -109,76 -57,45 -136,98 -176,118 -40,20 -75,39 -76,42 -3,5 46,146 120,344 24,62 28,67 55,67 17,0 47,-9 67,-19 z m -937,-202 c 83,-27 200,-90 260,-140 82,-69 85,-78 99,-302 7,-109 10,-201 7,-203 -3,-3 -74,18 -159,47 -141,49 -161,53 -245,53 l -93,1 v 30 c -1,91 45,535 55,535 7,0 41,-9 76,-21 z m 1752,-58 c 53,-49 67,-80 67,-148 -1,-123 -47,-360 -86,-435 -24,-46 -51,-37 -121,39 l -63,68 55,-118 c 30,-64 55,-129 55,-144 0,-15 -14,-84 -30,-153 -30,-124 -65,-205 -87,-205 -7,0 -67,64 -133,143 l -121,143 67,167 c 88,221 146,376 191,513 36,105 41,114 87,151 54,43 49,44 119,-21 z m -955,-263 c 9,-7 68,-55 129,-106 l 113,-93 v -52 c 0,-92 -66,-434 -83,-430 -5,1 -56,43 -115,94 -59,51 -131,108 -159,126 -53,34 -53,34 -53,86 0,29 7,108 15,177 8,69 15,148 15,177 0,41 4,52 18,55 22,5 98,-16 120,-34 z m -492,-398 c 37,-23 162,-94 277,-157 116,-63 237,-136 270,-161 l 60,-47 -54,-9 c -29,-5 -100,-33 -157,-62 -58,-30 -109,-51 -114,-48 -21,13 -46,85 -53,149 -9,97 -15,126 -26,119 -16,-9 -10,-98 12,-180 12,-43 23,-91 26,-105 6,-35 -31,-78 -104,-118 -32,-17 -66,-37 -76,-44 -33,-23 -117,34 -235,160 -59,63 -108,109 -110,104 -5,-15 60,-110 140,-201 38,-45 68,-83 66,-85 -2,-2 -41,19 -87,46 -83,50 -151,73 -151,50 0,-6 35,-38 78,-72 87,-69 129,-118 109,-131 -6,-4 -30,-8 -53,-8 -62,0 -180,-35 -219,-64 -41,-31 -90,-110 -81,-131 9,-26 52,-17 96,20 40,34 65,45 58,26 -25,-69 -254,-540 -256,-529 -2,9 6,173 18,365 29,489 32,537 37,543 3,3 31,3 64,2 32,-2 59,0 59,5 0,4 -32,26 -70,47 l -70,39 v 71 c 0,116 63,439 89,455 5,3 95,3 199,-1 l 190,-7 z m 392,-104 c 29,-15 144,-128 151,-149 5,-15 -11,-3 -99,73 -36,31 -76,64 -90,73 -20,14 -21,17 -7,17 10,0 30,-6 45,-14 z m 607,-117 c 4,-12 40,-57 81,-101 41,-45 74,-84 74,-89 0,-4 -13,-2 -29,4 -20,7 -63,8 -140,1 -98,-8 -111,-7 -107,6 15,47 69,167 83,182 21,23 30,23 38,-3 z m -389,-289 c 6,-19 26,-72 43,-117 17,-46 29,-83 27,-83 -2,0 -20,34 -40,76 -20,43 -39,75 -41,72 -6,-6 86,-250 116,-310 28,-54 60,-98 72,-98 6,0 8,25 4,59 -3,43 -21,95 -61,184 -39,87 -56,138 -56,167 0,23 -5,50 -11,61 -10,19 -8,20 108,13 65,-4 125,-8 133,-10 8,-1 18,-3 23,-3 4,-1 7,-12 7,-25 0,-13 29,-91 64,-173 l 65,-148 105,-35 c 59,-19 106,-38 106,-42 0,-10 -184,-154 -238,-186 -45,-26 -54,-27 -182,-28 -97,0 -146,-5 -176,-16 -22,-9 -66,-21 -97,-28 -31,-6 -57,-14 -57,-18 1,-4 19,-19 41,-35 l 39,-27 -33,-53 c -41,-65 -103,-113 -157,-122 -46,-8 -54,-30 -15,-45 37,-14 30,-36 -17,-59 -44,-20 -103,-33 -263,-54 -49,-7 -90,-16 -89,-22 2,-20 98,-46 169,-46 78,0 157,22 254,70 44,23 62,28 65,19 30,-106 89,-342 102,-407 16,-81 16,-87 -5,-190 -11,-58 -36,-198 -55,-311 -54,-316 -111,-467 -212,-560 -51,-45 -57,-48 -116,-52 -86,-4 -249,9 -331,27 -150,34 -279,100 -364,187 -42,43 -42,43 -63,183 -39,254 -41,607 -5,871 30,219 105,506 170,648 32,72 91,141 119,141 6,0 27,-62 46,-137 19,-75 40,-138 45,-140 20,-6 16,61 -9,160 -29,114 -32,159 -12,205 20,47 39,61 177,123 137,62 174,87 299,197 169,150 279,192 306,117 z m 515,17 c 50,-34 94,-97 129,-188 34,-88 37,-145 8,-163 -12,-7 -35,-5 -85,10 l -68,19 -58,145 -59,145 31,27 c 38,34 58,35 102,5 z m 173,-619 c 45,-77 69,-216 47,-272 -4,-12 -29,-26 -67,-37 -71,-22 -159,-77 -237,-147 -57,-52 -149,-102 -225,-122 -69,-18 -144,16 -178,82 -23,45 -3,60 33,26 37,-34 102,-68 131,-68 13,0 37,13 53,29 25,26 29,37 29,88 -1,87 -27,136 -89,167 -28,15 -60,26 -71,26 -17,0 -19,4 -14,28 22,88 39,97 178,87 55,-4 105,-9 113,-12 7,-3 31,-36 53,-74 38,-65 56,-86 66,-77 2,2 -12,41 -31,86 l -35,83 102,74 c 55,41 105,75 109,75 5,0 19,-19 33,-42 z m -494,-304 c 0,-8 -4,-12 -10,-9 -5,3 -10,10 -10,16 0,5 5,9 10,9 6,0 10,-7 10,-16 z m -34,-39 c 57,-34 69,-56 50,-94 -18,-34 -36,-42 -76,-34 -36,7 -80,55 -80,87 0,28 27,66 47,66 9,0 36,-11 59,-25 z m 584,-215 c 3,-118 4,-217 2,-219 -7,-12 -242,240 -242,260 0,16 65,39 109,39 22,0 46,3 55,6 20,8 21,33 1,40 -13,5 -12,10 1,37 24,46 35,58 53,55 14,-3 17,-32 21,-218 z m -192,-49 c 33,-23 104,-120 155,-209 44,-80 43,-147 -5,-267 -51,-126 -78,-212 -153,-505 -36,-140 -84,-311 -106,-380 -50,-153 -131,-325 -162,-342 -12,-7 -57,-12 -102,-12 -65,0 -90,4 -136,25 -48,23 -62,37 -111,110 -31,46 -65,92 -77,103 -24,22 -56,15 -47,-11 14,-36 18,-100 7,-107 -18,-11 -57,37 -76,94 l -18,53 24,19 c 13,10 45,26 71,35 42,15 51,25 87,88 103,181 190,511 191,722 1,109 15,73 29,-72 18,-188 23,-213 32,-190 16,42 8,240 -21,495 -16,146 -30,268 -30,273 0,4 12,7 28,7 26,1 76,17 227,74 83,32 146,31 193,-3 z m -485,-141 c 4,-22 3,-29 -2,-20 -12,21 -25,90 -13,70 5,-8 12,-31 15,-50 z M 1799,1696 c 153,-78 239,-100 384,-101 116,0 118,0 124,-24 8,-33 -11,-199 -42,-361 -59,-309 -88,-448 -106,-495 -22,-58 -86,-126 -120,-128 -24,-2 -204,99 -354,198 -85,56 -235,177 -248,201 -20,35 52,280 160,552 47,116 88,212 91,212 3,0 53,-24 111,-54 z m 481,3 c -48,-30 -192,-36 -238,-10 -12,8 11,11 83,12 55,1 114,4 130,8 35,8 46,4 25,-10 z m 375,-208 c 58,-67 80,-85 137,-110 37,-17 71,-39 77,-49 12,-22 0,-77 -87,-427 -33,-132 -66,-275 -73,-317 -6,-43 -17,-78 -23,-78 -21,0 -290,41 -294,45 -2,2 3,34 12,72 22,96 41,221 76,493 42,325 41,321 55,318 7,-2 35,-31 64,-65 38,-46 61,-65 91,-74 29,-9 44,-9 51,-2 8,8 -9,30 -60,78 -50,48 -80,86 -101,130 -54,113 -32,109 75,-14 z m -275,-391 c -11,-179 -34,-373 -53,-460 l -12,-55 -59,-3 c -32,-2 -64,-1 -71,2 -10,3 -4,27 21,90 60,151 83,260 171,801 13,83 16,-184 3,-375 z m 76,303 c -4,-64 -11,-124 -16,-132 -6,-11 -8,-5 -5,19 3,19 7,79 11,133 3,53 8,97 11,97 3,0 3,-53 -1,-117 z m -19,-195 c -3,-7 -5,-2 -5,12 0,14 2,19 5,13 2,-7 2,-19 0,-25 z"
       id="path85"
       style="fill:#800000;fill-opacity:1;stroke:none" />
    <path
       d="m 5883,6411 c -62,-16 -138,-84 -149,-134 -8,-39 15,-156 37,-189 11,-14 19,-28 19,-31 0,-2 38,-71 85,-152 47,-82 85,-149 85,-151 0,-1 32,-57 71,-125 181,-313 347,-603 399,-694 31,-55 63,-111 72,-125 20,-30 28,-111 12,-117 -6,-2 -28,18 -48,44 -73,94 -254,270 -284,276 -40,8 -94,-6 -148,-39 -25,-16 -70,-43 -99,-61 -42,-26 -57,-42 -75,-85 -19,-45 -22,-63 -16,-123 3,-38 9,-80 12,-91 5,-18 0,-24 -33,-34 -91,-29 -182,-101 -209,-167 -19,-44 -18,-156 2,-223 9,-30 18,-71 21,-90 5,-37 2,-42 -80,-118 -49,-46 -61,-88 -54,-191 8,-123 70,-353 200,-742 36,-108 71,-216 77,-240 27,-101 90,-242 199,-444 37,-68 170,-286 186,-305 14,-17 178,-276 248,-392 26,-43 76,-135 111,-205 70,-140 83,-186 116,-423 27,-185 35,-221 64,-278 40,-79 84,-116 166,-140 19,-6 80,-27 135,-47 195,-71 318,-98 440,-98 184,1 380,65 476,157 24,22 78,81 119,130 41,49 84,98 96,110 11,11 53,60 93,109 l 72,87 -20,60 c -12,33 -25,81 -31,107 -14,66 -59,207 -148,473 -67,198 -76,234 -76,300 -1,58 4,86 22,122 12,27 26,48 30,48 5,0 18,28 30,63 73,213 42,372 -148,762 -132,269 -186,406 -211,538 -39,203 -129,421 -297,727 -33,61 -171,297 -192,330 -5,8 -34,56 -65,105 -30,50 -93,151 -139,225 -147,235 -263,437 -335,585 -31,61 -74,129 -113,175 -35,41 -119,145 -188,230 -175,218 -368,437 -421,477 -21,16 -78,23 -116,14 z m 154,-110 c 26,-31 91,-101 144,-157 82,-85 143,-169 144,-196 0,-4 -21,-18 -47,-32 -26,-14 -71,-44 -100,-68 -29,-24 -74,-54 -100,-68 l -47,-24 -23,29 c -34,43 -57,75 -114,157 -98,140 -148,270 -125,326 18,44 55,73 106,86 80,21 109,11 162,-53 z m 578,-712 c 42,-80 43,-89 10,-89 -40,0 -93,-26 -180,-89 -71,-52 -149,-101 -160,-101 -2,0 -9,15 -15,34 -6,19 -49,94 -96,166 -46,72 -93,149 -104,170 l -20,39 34,20 c 18,12 36,21 39,21 6,0 159,96 197,123 l 25,18 117,-123 c 81,-84 129,-144 153,-189 z m 151,-282 c 51,-83 136,-223 188,-309 l 95,-158 -27,-6 c -15,-3 -47,-12 -72,-19 -92,-28 -323,-84 -346,-85 -7,0 -32,39 -56,88 -100,196 -211,408 -219,417 -16,17 -9,23 34,30 40,6 98,40 162,94 81,69 139,111 144,105 3,-2 46,-73 97,-157 z m -556,-391 c 130,-88 234,-233 281,-391 6,-22 17,-51 24,-65 7,-14 17,-36 23,-50 60,-144 174,-368 259,-510 18,-30 30,-56 28,-59 -3,-2 -40,29 -83,71 -74,72 -125,108 -155,108 -15,0 -103,-86 -120,-116 -10,-17 4,-102 25,-157 19,-49 2,-40 -48,26 -27,35 -86,111 -130,168 -171,219 -249,334 -288,424 -64,150 -79,193 -106,308 l -21,88 35,47 c 49,66 105,118 151,141 44,21 47,20 125,-33 z m 866,-165 c 83,-50 199,-235 322,-511 11,-25 33,-74 50,-110 57,-126 154,-375 209,-540 32,-95 72,-244 68,-249 -3,-2 -272,176 -276,183 0,0 -3,51 -5,111 -5,109 -26,221 -44,239 -9,9 -16,-89 -12,-154 1,-18 -17,-112 -22,-118 -8,-7 -150,69 -175,93 -22,22 -23,26 -12,69 6,24 11,81 11,126 v 80 l -25,-6 c -23,-6 -25,-3 -27,27 0,19 0,44 1,55 2,29 -17,77 -27,70 -5,-3 -12,-71 -16,-151 -4,-80 -11,-157 -16,-170 -22,-57 -141,-11 -179,70 -11,24 -55,94 -96,154 -93,138 -120,191 -135,266 -9,48 -8,69 3,105 11,38 11,55 0,105 -22,99 -28,95 -33,-25 l -5,-115 -49,74 c -47,71 -48,75 -43,131 9,108 37,127 188,135 63,3 139,8 169,11 53,6 120,36 120,55 0,14 22,11 56,-10 z M 5877,4508 c 26,-29 90,-141 140,-243 21,-44 78,-134 128,-200 49,-66 127,-172 173,-235 47,-63 89,-121 95,-127 6,-9 4,-15 -9,-19 -34,-12 -84,-54 -99,-84 -27,-52 -25,-60 59,-259 20,-47 34,-86 32,-89 -7,-6 -108,89 -168,158 -70,80 -95,115 -225,308 -120,178 -188,266 -265,341 -45,43 -57,61 -61,95 -3,22 -11,70 -17,105 -15,87 -5,145 31,179 25,23 143,92 160,92 3,0 15,-10 26,-22 z m -113,-586 c 42,-43 88,-98 104,-122 16,-25 68,-105 116,-177 47,-73 86,-135 86,-138 0,-3 -8,-5 -18,-5 -27,0 -62,-42 -72,-86 -12,-51 3,-120 41,-196 40,-80 56,-98 88,-98 31,0 106,33 117,52 5,7 24,23 42,36 l 32,23 v -26 c 0,-45 -37,-103 -80,-125 -131,-67 -245,21 -551,425 -77,101 -93,139 -135,318 -12,51 4,92 57,146 69,70 81,68 173,-27 z m 944,-17 c 51,-43 55,-71 17,-151 -32,-70 -93,-144 -120,-144 -7,0 -21,21 -31,48 -9,26 -28,74 -41,106 -12,33 -23,65 -23,71 0,6 21,22 48,34 26,12 58,31 72,41 33,26 43,25 78,-5 z m 152,-145 c 13,-8 13,-12 0,-32 -25,-39 -75,-140 -96,-193 -14,-38 -19,-75 -19,-151 0,-123 2,-126 120,-183 142,-70 176,-55 225,98 55,173 53,222 -13,293 -47,51 -87,103 -87,112 0,10 341,-165 405,-208 64,-43 161,-130 176,-158 6,-12 2,-37 -16,-84 -43,-114 -58,-185 -57,-273 2,-119 3,-121 67,-121 63,0 54,-16 101,195 33,151 31,145 48,145 22,0 154,-140 177,-190 31,-64 70,-177 79,-230 5,-25 16,-76 25,-115 22,-91 26,-366 6,-445 -40,-163 -80,-235 -153,-272 -114,-57 -220,-83 -338,-81 -82,1 -112,7 -164,33 -78,41 -126,85 -180,165 -106,159 -156,237 -156,242 0,4 -6,14 -14,22 -19,21 -111,205 -131,261 -20,57 -45,201 -45,263 0,84 42,76 213,-39 73,-49 125,-76 160,-84 63,-15 113,-59 164,-145 47,-78 126,-172 131,-155 5,13 2,19 -51,128 -23,46 -31,72 -23,72 7,0 39,-13 72,-29 88,-42 128,-53 163,-44 17,5 27,12 23,18 -4,6 -54,34 -112,64 -58,30 -109,57 -114,62 -5,4 8,24 28,45 20,20 36,40 36,44 0,22 -36,28 -160,29 -137,0 -217,13 -282,47 -129,67 -286,201 -355,305 -98,149 -68,420 63,554 44,46 58,52 84,35 z m 108,-117 c 42,-37 102,-115 102,-134 0,-10 -16,-35 -35,-56 -25,-26 -36,-49 -40,-80 -3,-24 -8,-64 -11,-89 l -6,-46 -60,6 c -108,10 -125,38 -116,190 6,87 25,137 73,195 30,35 62,40 93,14 z m -443,-100 c 74,-90 79,-104 67,-186 -16,-108 -60,-150 -118,-113 -24,16 -124,202 -124,230 0,8 23,34 50,57 28,23 50,48 50,56 0,28 31,11 75,-44 z m -319,-229 c 21,-35 23,-46 14,-70 -13,-34 -68,-83 -93,-84 -36,0 -74,29 -91,70 -19,47 -18,49 49,125 l 50,56 23,-28 c 13,-15 34,-47 48,-69 z m 856,34 c -17,-17 -24,-4 -16,28 7,28 7,28 17,6 7,-16 7,-26 -1,-34 z M 5777,3244 c 21,-13 163,-183 163,-195 0,-12 -42,-49 -56,-49 -8,0 -29,-7 -46,-16 -30,-15 -32,-15 -45,2 -35,48 -100,255 -86,277 6,9 39,0 70,-19 z m 833,-64 c 0,-5 -4,-10 -10,-10 -5,0 -10,5 -10,10 0,6 5,10 10,10 6,0 10,-4 10,-10 z m 990,-61 c 0,-47 -49,-201 -61,-193 -23,14 -7,114 36,232 9,25 25,1 25,-39 z m -1127,-23 c 55,-23 63,-66 31,-175 -76,-255 -143,-495 -140,-498 2,-2 10,-1 19,2 9,4 23,35 33,73 9,37 20,72 24,77 4,6 10,24 14,40 9,41 93,301 113,350 39,98 64,145 76,145 11,0 7,-19 -13,-77 -70,-206 -84,-419 -44,-685 13,-83 21,-28 22,155 2,105 9,235 17,287 12,85 63,261 79,277 3,4 17,-4 31,-17 l 25,-24 -6,-180 c -8,-230 0,-280 61,-345 23,-25 48,-56 54,-69 13,-24 6,-46 -11,-36 -17,10 -27,-17 -17,-44 16,-40 136,-220 203,-302 33,-41 98,-114 143,-161 46,-47 83,-92 83,-100 0,-13 33,-145 149,-594 52,-201 66,-304 23,-165 -13,41 -40,120 -59,175 -20,55 -53,152 -75,215 -93,277 -111,310 -149,264 -29,-35 -224,-121 -314,-139 -82,-16 -170,-8 -230,20 -58,28 -125,105 -201,230 -36,61 -79,128 -94,150 -27,38 -103,155 -202,311 -58,90 -170,303 -197,374 -12,30 -26,64 -31,75 -18,39 -60,158 -60,171 0,8 20,35 44,60 l 45,46 68,-6 c 37,-4 86,-11 108,-16 103,-24 166,-1 195,72 8,18 22,46 33,62 19,26 24,28 67,23 26,-3 64,-12 83,-21 z m 555,-907 c 52,-67 91,-123 88,-127 -9,-8 -82,74 -134,153 -64,94 -64,95 -55,94 4,0 50,-54 101,-120 z m 492,-459 c 25,-5 73,-12 108,-16 34,-3 64,-10 67,-14 11,-18 -188,-23 -228,-6 -10,5 -23,3 -32,-4 -12,-10 -16,-7 -25,15 -18,47 -11,49 110,25 z m -54,-99 c 14,-16 40,-35 60,-41 40,-13 131,-6 209,16 46,13 51,13 62,-3 7,-9 13,-22 13,-28 0,-6 45,-147 100,-313 95,-288 100,-304 86,-331 -21,-40 -78,-87 -123,-101 -21,-7 -53,-24 -71,-37 -23,-17 -37,-22 -45,-15 -25,21 -113,211 -147,317 -12,39 -28,86 -35,105 -12,35 -20,62 -45,150 -7,25 -18,61 -25,80 -7,19 -20,62 -30,95 -9,33 -23,72 -31,87 -28,52 -15,63 22,19 z m -52,-107 c 19,-46 45,-117 56,-156 12,-40 34,-113 51,-163 16,-49 36,-112 45,-140 23,-69 79,-204 120,-289 19,-40 18,-42 -18,-51 -50,-13 -52,-12 -59,20 -4,17 -37,116 -73,220 -37,105 -73,213 -82,240 -26,91 -55,199 -80,300 -14,55 -27,109 -31,120 -6,20 -5,20 15,1 12,-10 37,-56 56,-102 z m -190,49 c 9,-32 25,-80 35,-108 10,-27 55,-165 100,-305 46,-140 91,-277 101,-305 29,-79 50,-152 50,-173 0,-15 -45,-48 -58,-43 -1,1 -9,-5 -17,-13 -21,-21 -145,-13 -225,14 -73,24 -235,106 -252,128 -11,13 -26,48 -59,142 -6,19 -16,44 -20,55 -5,11 -27,67 -49,125 -22,58 -48,120 -56,139 -8,18 -13,35 -11,37 2,3 31,11 63,19 78,20 170,66 233,116 79,63 53,77 -62,33 -37,-14 -71,-23 -75,-19 -11,11 81,89 143,120 31,16 73,44 93,61 20,18 40,33 44,34 4,0 14,-26 22,-57 z m 728,-160 c 69,-205 108,-334 108,-355 0,-13 -28,-34 -35,-26 -1,2 -12,41 -23,88 -12,47 -44,169 -71,273 -27,103 -46,187 -42,187 4,0 32,-75 63,-167 z M 6736,1183 c 30,-62 54,-117 54,-123 0,-7 6,-26 14,-43 43,-99 89,-215 93,-236 6,-23 4,-24 -28,-17 -49,10 -75,31 -83,67 -6,34 -38,138 -107,357 -21,68 -39,129 -39,134 0,30 48,-40 96,-139 z"
       id="path87"
       style="fill:#800000" />
    <g
       id="g294">
      <path
         id="path4308"
         style="fill:#800000;stroke:none;stroke-width:0.0219908"
         d="M 675.11328 60.455078 C 673.56721 60.502865 671.39698 61.177878 670.65234 61.833984 C 670.01405 62.380758 667.98947 67.405712 656.28711 97.634766 C 655.82174 98.836753 653.91956 103.82179 653.31836 105.37891 L 665.20508 105.37891 C 667.67986 99.282845 681.55172 65.666368 681.5918 65.402344 C 681.67193 64.801824 681.53806 64.202049 681.0957 63.292969 C 680.5737 62.220262 680.31842 61.910594 679.47266 61.429688 C 678.20624 60.685594 676.92513 60.406931 675.11328 60.455078 z M 650.62109 112.41406 C 635.38994 151.92433 595.51504 255.85483 587.25781 277.66992 C 583.31251 288.09203 581.01762 294.80097 580.99023 295.94727 C 580.94421 298.47637 583.38011 299.32621 585.39258 297.44922 C 585.72058 297.13945 586.36766 296.06583 586.83789 295.06445 C 589.21586 289.89376 605.35371 251.07116 632.46094 185.26758 C 658.75616 121.43263 656.58529 126.4812 662.32227 112.41406 L 650.62109 112.41406 z "
         transform="matrix(7.5,0,0,-7.5,235.8871,8963.7097)" />
      <path
         id="path4310"
         style="fill:#800000;stroke:none;stroke-width:0.0232799"
         d="M 706.68359 67.958984 C 705.57277 67.873784 703.66854 68.432819 702.99805 69.013672 C 702.43065 69.488285 701.90896 70.386811 699.01758 75.955078 C 696.72423 80.36069 688.40658 96.794288 684.00391 105.35352 L 698.13281 105.35352 C 698.99221 103.77575 702.69216 97.009893 703.19531 96.083984 C 708.13299 87.001958 711.83504 79.904085 713.1543 77.013672 C 714.3861 74.371232 714.41747 73.456815 713.38477 71.855469 C 712.19011 69.963602 708.97183 68.108144 706.68359 67.958984 z M 680.41016 112.38867 C 650.68276 170.25073 595.53233 278.07736 587.50195 294.30859 C 585.67857 297.97118 585.43239 299.07737 586.0293 300.40234 C 586.51858 301.4439 587.96897 302.03106 589.09961 301.66992 C 590.81885 301.09634 591.90016 299.60271 596.27734 291.82422 C 598.17954 288.46027 672.9005 151.62613 694.28906 112.38867 L 680.41016 112.38867 z "
         transform="matrix(7.5,0,0,-7.5,235.8871,8963.7097)" />
    </g>
  </g>
</svg>
